<svg xmlns="http://www.w3.org/2000/svg" viewBox="0 0 32 32" width="32" height="32">
  <rect width="32" height="32" rx="7" fill="#5abfb7"/>
  <path transform="translate(7.6192 25.2150) scale(0.012369 -0.012369)" fill="#ffffff" d="M649.360595703125 -23.0400390625Q494.240234375 -23.0400390625 375.0999755859375 37.9801025390625Q255.959716796875 99.000244140625 184.599609375 201.92041015625Q113.239501953125 304.840576171875 99.03955078125 429.920654296875H446.6416015625Q462.801513671875 357.52099609375 517.601318359375 318.121337890625Q572.401123046875 278.7216796875 649.360595703125 278.7216796875Q741.3203125 278.7216796875 802.4200439453125 333.5615234375Q863.519775390625 388.4013671875 893.9595947265625 488.041015625Q924.3994140625 587.6806640625 924.3994140625 722.080078125H915.439453125Q884.5595703125 655.760009765625 827.4195556640625 607.8399658203125Q770.279541015625 559.919921875 696.0794677734375 534.2799072265625Q621.87939453125 508.639892578125 538.559326171875 508.639892578125Q405.2392578125 508.639892578125 302.039306640625 570.2398681640625Q198.83935546875 631.83984375 140.659423828125 739.9197998046875Q82.4794921875 847.999755859375 82.4794921875 985.6796875Q82.4794921875 1141.39990234375 155.359619140625 1260.4599609375Q228.23974609375 1379.52001953125 357.699951171875 1446.6400146484375Q487.16015625 1513.760009765625 656.88037109375 1513.0400390625Q778.520751953125 1512.800048828125 889.1409912109375 1472.97998046875Q999.76123046875 1433.159912109375 1086.0213623046875 1346.1798095703125Q1172.281494140625 1259.19970703125 1222.4615478515625 1117.4996337890625Q1272.6416015625 975.799560546875 1272.6416015625 772.07958984375Q1272.6416015625 586.999755859375 1228.6815185546875 440.079833984375Q1184.721435546875 293.159912109375 1102.7012939453125 189.5599365234375Q1020.68115234375 85.9599609375 905.6209716796875 31.4599609375Q790.560791015625 -23.0400390625 649.360595703125 -23.0400390625ZM657.760498046875 756.720947265625Q708.2802734375 756.720947265625 750.9400634765625 775.36083984375Q793.599853515625 794.000732421875 825.0596923828125 826.820556640625Q856.51953125 859.640380859375 874.2994384765625 903.18017578125Q892.079345703125 946.719970703125 892.079345703125 997.519775390625Q892.079345703125 1064.51953125 861.9794921875 1118.8792724609375Q831.879638671875 1173.239013671875 779.3798828125 1205.298828125Q726.880126953125 1237.358642578125 659.200439453125 1237.358642578125Q592.7607421875 1237.358642578125 539.5009765625 1205.77880859375Q486.2412109375 1174.198974609375 455.641357421875 1119.5992431640625Q425.04150390625 1064.99951171875 425.04150390625 996.559814453125Q425.04150390625 928.360107421875 455.2813720703125 874.0003662109375Q485.521240234375 819.640625 538.041015625 788.1807861328125Q590.560791015625 756.720947265625 657.760498046875 756.720947265625Z"/>
</svg>
